<?xml version="1.0" encoding="UTF-8"?>
<svg width="328.31261602722765" height="304.915625" viewBox="0 0 391.5 363.6" class="css-1j8o68f">
    <defs id="SvgjsDefs1529">
        <linearGradient id="SvgjsLinearGradient1538">
            <stop id="SvgjsStop1539" stop-color="#8f5e25" offset="0"></stop>
            <stop id="SvgjsStop1540" stop-color="#fbf4a1" offset="0.5"></stop>
            <stop id="SvgjsStop1541" stop-color="#8f5e25" offset="1"></stop>
        </linearGradient>
    </defs>
    <g id="SvgjsG1530" featurekey="rootContainer" transform="matrix(0.9,0,0,0.9,0,0)" fill="#ffffff">
        <path xmlns="http://www.w3.org/2000/svg" fill-rule="evenodd"
            d=" M0,0 H435 V404 H0,0 z M2,2 H433 V402 H2,2 z M6,6 H429 V398 H6 z M8,8 H427 V396 H6,8 z "></path>
    </g>
    <g id="SvgjsG1531" featurekey="monogramFeature-0"
        transform="matrix(4.531512729823547,0,0,4.531512729823547,99.60819271579405,-51.56722913682384)"
        fill="url(#SvgjsLinearGradient1538)">
        <path
            d="M4.5 43.32 l0 -25.32 l6.42 0 l0 24.84 c0 7.32 4.38 11.22 10.38 11.22 s10.38 -3.9 10.38 -11.22 l0 -24.84 l6.42 0 l0 25.32 c0 10.92 -6.42 17.28 -16.8 17.28 s-16.8 -6.36 -16.8 -17.28 z">
        </path>
    </g>
    <g id="SvgjsG1532" featurekey="nameFeature-0"
        transform="matrix(1.0670019130392698,0,0,1.0670019130392698,26.496712682785947,230.69698793344241)"
        fill="#ffffff">
        <path
            d="M16.6 40.64 c-5.52 0 -11.76 -2.96 -11.76 -11.08 l0 -12.72 c0 -2.6 -1.4 -3.36 -3.28 -3.6 c-0.32 -0.04 -0.08 -1.24 0.24 -1.24 l10.32 0 c0.32 0 0.56 1.2 0.24 1.24 c-1.6 0.2 -3.2 0.8 -3.2 3.6 l0 12.92 c0 5.68 3.32 8.44 7.8 8.44 c4.6 0 8.16 -2.76 8.16 -8.44 l0 -12.92 c0 -2.64 -1.48 -3.32 -3.44 -3.6 c-0.28 -0.04 -0.08 -1.24 0.24 -1.24 l8.72 0 c0.32 0 0.56 1.2 0.24 1.24 c-1.68 0.2 -3.28 0.8 -3.28 3.6 l0 12.72 c0 7.32 -4.72 11.08 -11 11.08 z M31.911999999999995 40.08 c-0.4 0.04 -0.56 -1.2 -0.24 -1.28 c2.36 -0.6 4.16 -0.96 4.16 -3.92 l0 -18.04 c0 -2.8 -1.64 -3.36 -3.4 -3.6 c-0.32 -0.04 -0.08 -1.24 0.2 -1.24 l10.44 0 c0.32 0 0.52 1.2 0.24 1.24 c-1.72 0.2 -3.32 0.8 -3.32 3.6 l0 18.04 c0 2.32 1.04 3.08 4.48 3.08 c6.48 0 8.56 -2.6 9.56 -4.28 c0.32 -0.52 1.28 -0.4 1.28 0.36 c0 2.2 -1.68 6 -4.12 6.04 c-1.92 -0.12 -4.48 -0.24 -7.92 -0.24 c-3.68 0 -7.68 -0.12 -11.36 0.24 z M62.263999999999996 40 c-0.36 0 -0.6 -1.16 -0.28 -1.2 c2.72 -0.32 4.56 -0.92 4.56 -3.08 l0 -20.04 c0 -0.96 -0.32 -1.28 -1.28 -1.28 l-1.28 0 c-4.04 0 -5.84 0.68 -6.76 2.6 c-0.36 0.72 -1.56 0.6 -1.44 0 c0.32 -1.56 0.64 -2.64 0.88 -4.68 c0.08 -0.68 0.56 -0.64 1.24 -0.56 c1.52 0.16 3.52 0.24 10.92 0.24 s10.36 -0.08 11.88 -0.24 c0.72 -0.08 1.4 -0.12 1.16 0.56 c-0.56 1.84 -0.96 3.16 -1.2 4.68 c-0.12 0.68 -1.12 0.64 -1.24 0 c-0.4 -1.88 -2.04 -2.6 -5.6 -2.6 l-1.44 0 c-0.96 0 -1.52 0.32 -1.52 1.28 l0 20.04 c0 2.16 1.88 2.76 4.56 3.08 c0.32 0.04 0.08 1.2 -0.28 1.2 l-12.88 0 z M111.25599999999999 39.08 c0.32 0 0.28 1 0 1.12 c-2.24 0.84 -5.56 0.56 -7.76 -2.28 l-6.24 -8 c-1.68 -2.16 -3.88 -2.56 -6.8 -2.6 l0 7.84 c0 2.8 1.84 3.28 4.52 3.6 c0.28 0.04 0.08 1.24 -0.24 1.24 l-11.56 0 c-0.32 0 -0.56 -1.2 -0.24 -1.24 c1.96 -0.28 3.36 -1 3.36 -3.6 l0 -18.08 c0 -2.64 -1.4 -3.4 -3.36 -3.92 c-0.32 -0.08 -0.12 -1.28 0.24 -1.24 c1.6 0.2 3.36 0.24 4.56 0.24 c2.68 0 5.24 -0.24 7.08 -0.24 c5.72 0 9.92 2.4 9.92 7.4 c0 4.76 -3.96 7.04 -7 7.24 l0 0.2 c1.48 0 2.48 0.64 4.16 2.76 l6.16 7.68 c1.12 1.44 2.2 1.88 3.2 1.88 z M91.69599999999998 25.6 c6 0 8.64 -1.04 8.64 -5.24 c0 -4.36 -2.88 -6.52 -6.56 -6.52 c-2.44 0 -3.32 0.96 -3.32 3.24 l0 8.52 l1.24 0 z M141.168 38.72 c0.56 0.08 0.4 1.28 -0.08 1.28 l-9.96 0 c-0.52 0 -0.6 -1.2 -0.12 -1.28 c1.52 -0.24 3.04 -0.84 1.56 -4.32 l-0.6 -1.4 c-0.36 -0.92 -1.24 -0.96 -2.52 -0.96 l-8.32 0 c-1.2 0 -2.08 0.04 -2.44 0.96 l-0.56 1.4 c-1.48 3.56 0.04 4.04 2.04 4.32 c0.48 0.08 0.4 1.28 -0.12 1.28 l-8.44 0 c-0.52 0 -0.64 -1.2 -0.12 -1.28 c1.68 -0.24 2.64 -0.88 4.12 -4.32 l6.76 -15.4 c1.56 -3.52 2.04 -5.28 2.04 -6.8 c0 -0.24 2.84 -0.88 2.96 -0.6 l9.76 22.76 c1.48 3.48 2.44 4.12 4.04 4.36 z M129.44799999999998 30 c0.6 0 1.28 -0.08 1.04 -0.6 l-5.12 -12.16 l-5.12 12.16 c-0.24 0.52 0.4 0.6 1 0.6 l8.2 0 z M154.152 40 c-0.36 0 -0.6 -1.16 -0.28 -1.2 c2.72 -0.32 4.56 -0.92 4.56 -3.08 l0 -20.04 c0 -0.96 -0.32 -1.28 -1.28 -1.28 l-1.28 0 c-4.04 0 -5.84 0.68 -6.76 2.6 c-0.36 0.72 -1.56 0.6 -1.44 0 c0.32 -1.56 0.64 -2.64 0.88 -4.68 c0.08 -0.68 0.56 -0.64 1.24 -0.56 c1.52 0.16 3.52 0.24 10.92 0.24 s10.36 -0.08 11.88 -0.24 c0.72 -0.08 1.4 -0.12 1.16 0.56 c-0.56 1.84 -0.96 3.16 -1.2 4.68 c-0.12 0.68 -1.12 0.64 -1.24 0 c-0.4 -1.88 -2.04 -2.6 -5.6 -2.6 l-1.44 0 c-0.96 0 -1.52 0.32 -1.52 1.28 l0 20.04 c0 2.16 1.88 2.76 4.56 3.08 c0.32 0.04 0.08 1.2 -0.28 1.2 l-12.88 0 z M174.46399999999997 40.08 c-0.4 0.04 -0.56 -1.2 -0.24 -1.28 c2.36 -0.6 4.16 -0.96 4.16 -3.92 l0 -17.92 c0 -2.68 -1.64 -3.36 -3.4 -3.8 c-0.32 -0.08 -0.16 -1.28 0.24 -1.24 c2.92 0.24 7.2 0.24 10.16 0.24 c3.64 0 6.36 -0.16 9.52 -0.24 c0.92 0 0.92 0.64 0.72 1.52 l-1 3.8 c-0.12 0.52 -1.08 0.52 -1.24 0 c-0.56 -1.88 -1.84 -3.2 -6.92 -3.2 c-3 0 -3.92 0.72 -3.92 2.92 l0 6.64 c0 1.04 0.52 1.24 1.32 1.24 l0.76 0 c3.56 0 6.24 -0.24 8 -1.92 c0.36 -0.36 1.2 -0.28 0.88 0.48 l-2.36 5.04 c-0.28 0.68 -0.84 0.6 -1.28 0 c-0.96 -1.24 -3.04 -1.72 -5.56 -1.72 l-0.44 0 c-0.8 0 -1.32 0.2 -1.32 1.24 l0 6.92 c0 2.32 1.04 3.08 4.48 3.08 c6.48 0 8.56 -2.6 9.56 -4.28 c0.32 -0.52 1.28 -0.4 1.28 0.36 c0 2.2 -1.68 6 -4.12 6.04 c-1.92 -0.12 -4.48 -0.24 -7.92 -0.24 c-3.68 0 -7.68 -0.12 -11.36 0.24 z M228.05599999999998 38.76 c0.48 0.04 0.36 1.24 -0.12 1.24 l-10.92 0 c-0.48 0 -0.6 -1.2 -0.08 -1.24 c2.56 -0.24 2.28 -1.68 0.28 -4.36 l-4.56 -6.24 l-4.92 6.24 c-2.32 2.88 -1.72 4.16 0.56 4.36 c0.48 0.04 0.4 1.24 -0.12 1.24 l-9 0 c-0.52 0 -0.64 -1.2 -0.12 -1.24 c1.6 -0.12 3.84 -1.64 6 -4.36 l6.32 -8 l-6.4 -8.76 c-2.28 -3.08 -4.24 -4.28 -5.84 -4.4 c-0.56 -0.04 -0.44 -1.24 0.12 -1.24 l10.88 0 c0.48 0 0.6 1.2 0.12 1.24 c-2.64 0.24 -2.36 1.6 -0.32 4.36 l4.04 5.52 l4.36 -5.52 c2.24 -2.8 1.72 -4.16 -0.56 -4.36 c-0.52 -0.04 -0.4 -1.24 0.08 -1.24 l9 0 c0.52 0 0.64 1.2 0.12 1.24 c-1.6 0.12 -3.84 1.64 -6 4.36 l-5.72 7.28 l6.92 9.48 c2.24 3.04 4.24 4.28 5.88 4.4 z M235.128 40 c-0.36 0 -0.6 -1.16 -0.28 -1.2 c2.72 -0.32 4.56 -0.92 4.56 -3.08 l0 -20.04 c0 -0.96 -0.32 -1.28 -1.28 -1.28 l-1.28 0 c-4.04 0 -5.84 0.68 -6.76 2.6 c-0.36 0.72 -1.56 0.6 -1.44 0 c0.32 -1.56 0.64 -2.64 0.88 -4.68 c0.08 -0.68 0.56 -0.64 1.24 -0.56 c1.52 0.16 3.52 0.24 10.92 0.24 s10.36 -0.08 11.88 -0.24 c0.72 -0.08 1.4 -0.12 1.16 0.56 c-0.56 1.84 -0.96 3.16 -1.2 4.68 c-0.12 0.68 -1.12 0.64 -1.24 0 c-0.4 -1.88 -2.04 -2.6 -5.6 -2.6 l-1.44 0 c-0.96 0 -1.52 0.32 -1.52 1.28 l0 20.04 c0 2.16 1.88 2.76 4.56 3.08 c0.32 0.04 0.08 1.2 -0.28 1.2 l-12.88 0 z M256.03999999999996 40 c-0.32 0 -0.56 -1.2 -0.24 -1.24 c1.96 -0.28 3.36 -1 3.36 -3.6 l0 -18.32 c0 -2.6 -1.4 -3.32 -3.36 -3.6 c-0.32 -0.04 -0.08 -1.24 0.24 -1.24 l10.36 0 c0.32 0 0.56 1.2 0.24 1.24 c-1.72 0.24 -3.32 0.8 -3.32 3.6 l0 18.32 c0 2.8 1.6 3.36 3.32 3.6 c0.32 0.04 0.08 1.24 -0.24 1.24 l-10.36 0 z M267.87199999999996 40.08 c-0.4 0.04 -0.56 -1.2 -0.24 -1.28 c2.36 -0.6 4.16 -0.96 4.16 -3.92 l0 -18.04 c0 -2.8 -1.64 -3.36 -3.4 -3.6 c-0.32 -0.04 -0.08 -1.24 0.2 -1.24 l10.44 0 c0.32 0 0.52 1.2 0.24 1.24 c-1.72 0.2 -3.32 0.8 -3.32 3.6 l0 18.04 c0 2.32 1.04 3.08 4.48 3.08 c6.48 0 8.56 -2.6 9.56 -4.28 c0.32 -0.52 1.28 -0.4 1.28 0.36 c0 2.2 -1.68 6 -4.12 6.04 c-1.92 -0.12 -4.48 -0.24 -7.92 -0.24 c-3.68 0 -7.68 -0.12 -11.36 0.24 z M291.94399999999996 40.08 c-0.4 0.04 -0.56 -1.2 -0.24 -1.28 c2.36 -0.6 4.16 -0.96 4.16 -3.92 l0 -17.92 c0 -2.68 -1.64 -3.36 -3.4 -3.8 c-0.32 -0.08 -0.16 -1.28 0.24 -1.24 c2.92 0.24 7.2 0.24 10.16 0.24 c3.64 0 6.36 -0.16 9.52 -0.24 c0.92 0 0.92 0.64 0.72 1.52 l-1 3.8 c-0.12 0.52 -1.08 0.52 -1.24 0 c-0.56 -1.88 -1.84 -3.2 -6.92 -3.2 c-3 0 -3.92 0.72 -3.92 2.92 l0 6.64 c0 1.04 0.52 1.24 1.32 1.24 l0.76 0 c3.56 0 6.24 -0.24 8 -1.92 c0.36 -0.36 1.2 -0.28 0.88 0.48 l-2.36 5.04 c-0.28 0.68 -0.84 0.6 -1.28 0 c-0.96 -1.24 -3.04 -1.72 -5.56 -1.72 l-0.44 0 c-0.8 0 -1.32 0.2 -1.32 1.24 l0 6.92 c0 2.32 1.04 3.08 4.48 3.08 c6.48 0 8.56 -2.6 9.56 -4.28 c0.32 -0.52 1.28 -0.4 1.28 0.36 c0 2.2 -1.68 6 -4.12 6.04 c-1.92 -0.12 -4.48 -0.24 -7.92 -0.24 c-3.68 0 -7.68 -0.12 -11.36 0.24 z">
        </path>
    </g>
    <g id="SvgjsG1533" featurekey="nameFeature-1"
        transform="matrix(1.7060353576038738,0,0,1.7060353576038738,25.270913854771266,264.61944055034286)"
        fill="#ffffff">
        <path
            d="M24.76 20.48 c0 7.24 -6.68 10.08 -15.48 8.68 l0 6 c0 2.8 1.84 3.28 4.52 3.6 c0.28 0.04 0.08 1.24 -0.24 1.24 l-11.56 0 c-0.32 0 -0.56 -1.2 -0.24 -1.24 c1.96 -0.28 3.36 -1 3.36 -3.6 l0 -18.08 c0 -2.64 -1.4 -3.4 -3.36 -3.92 c-0.32 -0.08 -0.12 -1.28 0.24 -1.24 c1.6 0.2 3.36 0.24 4.56 0.24 c2.68 0 5.08 -0.24 7.16 -0.24 c5.96 0 11.04 2.24 11.04 8.56 z M12.88 13.84 c-2.8 0 -3.6 0.92 -3.6 3.24 l0 10.32 c7.08 0.96 11 -0.48 11 -6.04 c0 -5.2 -3.4 -7.52 -7.4 -7.52 z M54.912 39.08 c0.32 0 0.28 1 0 1.12 c-2.24 0.84 -5.56 0.56 -7.76 -2.28 l-6.24 -8 c-1.68 -2.16 -3.88 -2.56 -6.8 -2.6 l0 7.84 c0 2.8 1.84 3.28 4.52 3.6 c0.28 0.04 0.08 1.24 -0.24 1.24 l-11.56 0 c-0.32 0 -0.56 -1.2 -0.24 -1.24 c1.96 -0.28 3.36 -1 3.36 -3.6 l0 -18.08 c0 -2.64 -1.4 -3.4 -3.36 -3.92 c-0.32 -0.08 -0.12 -1.28 0.24 -1.24 c1.6 0.2 3.36 0.24 4.56 0.24 c2.68 0 5.24 -0.24 7.08 -0.24 c5.72 0 9.92 2.4 9.92 7.4 c0 4.76 -3.96 7.04 -7 7.24 l0 0.2 c1.48 0 2.48 0.64 4.16 2.76 l6.16 7.68 c1.12 1.44 2.2 1.88 3.2 1.88 z M35.352000000000004 25.6 c6 0 8.64 -1.04 8.64 -5.24 c0 -4.36 -2.88 -6.52 -6.56 -6.52 c-2.44 0 -3.32 0.96 -3.32 3.24 l0 8.52 l1.24 0 z M55.824 40 c-0.32 0 -0.56 -1.2 -0.24 -1.24 c1.96 -0.28 3.36 -1 3.36 -3.6 l0 -18.32 c0 -2.6 -1.4 -3.32 -3.36 -3.6 c-0.32 -0.04 -0.08 -1.24 0.24 -1.24 l10.36 0 c0.32 0 0.56 1.2 0.24 1.24 c-1.72 0.24 -3.32 0.8 -3.32 3.6 l0 18.32 c0 2.8 1.6 3.36 3.32 3.6 c0.32 0.04 0.08 1.24 -0.24 1.24 l-10.36 0 z M94.21600000000001 40.4 c-0.64 0 -0.96 -0.32 -1.4 -0.76 l-19.2 -20.72 l0 16.16 c0 2.68 1.56 3.16 3.64 3.68 c0.32 0.08 0.16 1.24 -0.24 1.24 l-8.96 0 c-0.36 0 -0.56 -1.12 -0.24 -1.24 c1.88 -0.52 3.32 -1 3.32 -3.68 l0 -15.84 c0 -2.56 -0.28 -4.24 -1.6 -5.72 c-0.24 -0.32 -0.6 -0.56 -0.6 -0.72 c0 -0.32 0.28 -0.8 0.72 -0.8 l2.8 0 c0.44 0 0.72 0.04 1 0.36 l18.84 20.56 l0 -16.04 c0 -2.8 -1.76 -3.16 -3.64 -3.64 c-0.32 -0.08 -0.16 -1.24 0.24 -1.24 l8.96 0 c0.36 0 0.56 1.16 0.24 1.24 c-1.8 0.48 -3.36 0.84 -3.36 3.64 l0 15.88 c0 2.52 0.08 5.4 0.48 6.84 c0.2 0.64 -0.52 0.8 -1 0.8 z M105.608 40 c-0.36 0 -0.6 -1.16 -0.28 -1.2 c2.72 -0.32 4.56 -0.92 4.56 -3.08 l0 -20.04 c0 -0.96 -0.32 -1.28 -1.28 -1.28 l-1.28 0 c-4.04 0 -5.84 0.68 -6.76 2.6 c-0.36 0.72 -1.56 0.6 -1.44 0 c0.32 -1.56 0.64 -2.64 0.88 -4.68 c0.08 -0.68 0.56 -0.64 1.24 -0.56 c1.52 0.16 3.52 0.24 10.92 0.24 s10.36 -0.08 11.88 -0.24 c0.72 -0.08 1.4 -0.12 1.16 0.56 c-0.56 1.84 -0.96 3.16 -1.2 4.68 c-0.12 0.68 -1.12 0.64 -1.24 0 c-0.4 -1.88 -2.04 -2.6 -5.6 -2.6 l-1.44 0 c-0.96 0 -1.52 0.32 -1.52 1.28 l0 20.04 c0 2.16 1.88 2.76 4.56 3.08 c0.32 0.04 0.08 1.2 -0.28 1.2 l-12.88 0 z M126.52 40 c-0.32 0 -0.56 -1.2 -0.24 -1.24 c1.96 -0.28 3.36 -1 3.36 -3.6 l0 -18.32 c0 -2.6 -1.4 -3.32 -3.36 -3.6 c-0.32 -0.04 -0.08 -1.24 0.24 -1.24 l10.36 0 c0.32 0 0.56 1.2 0.24 1.24 c-1.72 0.24 -3.32 0.8 -3.32 3.6 l0 18.32 c0 2.8 1.6 3.36 3.32 3.6 c0.32 0.04 0.08 1.24 -0.24 1.24 l-10.36 0 z M164.912 40.4 c-0.64 0 -0.96 -0.32 -1.4 -0.76 l-19.2 -20.72 l0 16.16 c0 2.68 1.56 3.16 3.64 3.68 c0.32 0.08 0.16 1.24 -0.24 1.24 l-8.96 0 c-0.36 0 -0.56 -1.12 -0.24 -1.24 c1.88 -0.52 3.32 -1 3.32 -3.68 l0 -15.84 c0 -2.56 -0.28 -4.24 -1.6 -5.72 c-0.24 -0.32 -0.6 -0.56 -0.6 -0.72 c0 -0.32 0.28 -0.8 0.72 -0.8 l2.8 0 c0.44 0 0.72 0.04 1 0.36 l18.84 20.56 l0 -16.04 c0 -2.8 -1.76 -3.16 -3.64 -3.64 c-0.32 -0.08 -0.16 -1.24 0.24 -1.24 l8.96 0 c0.36 0 0.56 1.16 0.24 1.24 c-1.8 0.48 -3.36 0.84 -3.36 3.64 l0 15.88 c0 2.52 0.08 5.4 0.48 6.84 c0.2 0.64 -0.52 0.8 -1 0.8 z M188.144 40.64 c-9.6 0 -17.32 -4.6 -17.32 -14.04 c0 -7.76 5.32 -15.24 16.28 -15.24 c4.8 0 8.52 1.4 8.08 2.68 l-0.52 1.56 c-1.24 3.6 -3.16 -1.28 -10.28 -1.28 c-6.24 0 -9.52 3.76 -9.52 10.08 c0 9.4 6.68 13.88 12.12 13.88 c2.84 0 4.28 -1.4 4.28 -3.88 l0 -0.76 c0 -3.04 -1.24 -4.04 -4.48 -4.52 c-0.52 -0.08 -0.16 -1.44 0.72 -1.44 l9.8 0 c1.08 0 0.56 1.32 0.12 1.44 c-1.36 0.36 -2.32 1.24 -2.32 3.8 l0 1.44 c0 1.08 0.04 1.84 0.8 3.16 c-2.4 1.28 -6.76 3.12 -7.76 3.12 z">
        </path>
    </g>
</svg>